<?xml version="1.0" encoding="utf-8"?>
<!-- Generator: Adobe Illustrator 19.0.0, SVG Export Plug-In . SVG Version: 6.00 Build 0)  -->
<svg version="1.2" baseProfile="tiny" id="Layer_1" xmlns="http://www.w3.org/2000/svg" xmlns:xlink="http://www.w3.org/1999/xlink"
	 x="0px" y="0px" viewBox="0 0 850 850" xml:space="preserve">
<g>
	<linearGradient id="XMLID_6_" gradientUnits="userSpaceOnUse" x1="492.2989" y1="358.7387" x2="187.5366" y2="247.8144">
		<stop  offset="0" style="stop-color:#6AC28C"/>
		<stop  offset="1" style="stop-color:#006838"/>
	</linearGradient>
	<path id="XMLID_4_" fill="url(#XMLID_6_)" d="M448.2,433.7c-81.1,50.3-187.5,25.4-237.9-55.7S185,190.5,266,140.2
		s40.8,65.7,91.1,146.8S529.3,383.4,448.2,433.7z"/>
	<linearGradient id="XMLID_7_" gradientUnits="userSpaceOnUse" x1="519.2504" y1="226.9079" x2="479.7104" y2="2.6655">
		<stop  offset="0" style="stop-color:#FBB040"/>
		<stop  offset="1" style="stop-color:#F9ED32"/>
	</linearGradient>
	<path id="XMLID_3_" fill="url(#XMLID_7_)" d="M342.8,217C318.3,124.8,373.3,30.3,465.5,5.8s186.8,30.5,211.2,122.7
		c24.4,92.2-74.8,19.8-167,44.3S367.2,309.3,342.8,217z"/>
	<linearGradient id="XMLID_8_" gradientUnits="userSpaceOnUse" x1="389.9533" y1="512.7021" x2="669.5113" y2="674.105">
		<stop  offset="0" style="stop-color:#00BBF2"/>
		<stop  offset="1" style="stop-color:#1C75BC"/>
	</linearGradient>
	<path id="XMLID_2_" fill="url(#XMLID_8_)" d="M448.8,443.6c89.3-33.7,188.9,11.4,222.6,100.6c33.7,89.3-11.4,188.9-100.6,222.6
		c-89.3,33.7-27.3-72.4-61-161.6S359.6,477.3,448.8,443.6z"/>
	<linearGradient id="XMLID_9_" gradientUnits="userSpaceOnUse" x1="347.1532" y1="624.6382" x2="319.6395" y2="848.7195">
		<stop  offset="0" style="stop-color:#F7941E"/>
		<stop  offset="1" style="stop-color:#F15A29"/>
	</linearGradient>
	<path id="XMLID_1_" fill="url(#XMLID_9_)" d="M513.2,686c-4.8,95.3-86,168.6-181.3,163.8s-168.6-86-163.8-181.3
		c4.8-95.3,77.2,3.9,172.5,8.7S518,590.7,513.2,686z"/>
</g>
</svg>
