<?xml version="1.0" encoding="utf-8"?>
<!-- Generator: Adobe Illustrator 19.0.0, SVG Export Plug-In . SVG Version: 6.00 Build 0)  -->
<svg version="1.2" baseProfile="tiny" id="Layer_1" xmlns="http://www.w3.org/2000/svg" xmlns:xlink="http://www.w3.org/1999/xlink"
	 x="0px" y="0px" viewBox="0 0 188.7 108.6" xml:space="preserve">
<g>
	<g>
		<g>
			<path d="M49.7,9.7h8.8v12.9h5.2v7.5h-5.2v27.4h-8.8V30.1h-4.5v-7.5h4.5V9.7z"/>
			<path d="M71.8,8.2c1.5,0,2.9,0.6,4,1.7c1.1,1.1,1.6,2.5,1.6,4c0,1.6-0.5,2.9-1.6,4c-1.1,1.1-2.4,1.7-3.9,1.7
				c-1.6,0-2.9-0.6-4-1.7c-1.1-1.1-1.6-2.5-1.6-4.1c0-1.5,0.5-2.9,1.6-3.9C68.9,8.7,70.2,8.2,71.8,8.2z M67.4,22.5h8.8v34.9h-8.8
				V22.5z"/>
			<path d="M92.8,22.5v3.9c1.6-1.6,3.3-2.8,5.1-3.6c1.8-0.8,3.8-1.2,5.9-1.2c4.6,0,8.4,1.7,11.6,5.2c3.2,3.4,4.8,7.9,4.8,13.3
				c0,5.2-1.6,9.6-4.9,13c-3.3,3.5-7.2,5.2-11.7,5.2c-2,0-3.9-0.4-5.6-1.1s-3.5-1.9-5.2-3.5v16.5h-8.7V22.5H92.8z M102,29.7
				c-2.8,0-5.1,0.9-6.9,2.8c-1.8,1.9-2.7,4.3-2.7,7.4c0,3.1,0.9,5.6,2.7,7.5c1.8,1.9,4.1,2.9,6.9,2.9c2.7,0,4.9-1,6.8-2.9
				c1.8-1.9,2.7-4.4,2.7-7.4c0-3-0.9-5.5-2.7-7.4C107,30.7,104.8,29.7,102,29.7z"/>
			<path d="M146.5,27.4l-5.4,5.4c-2.2-2.2-4.2-3.3-6-3.3c-1,0-1.8,0.2-2.3,0.6c-0.6,0.4-0.8,0.9-0.8,1.6c0,0.5,0.2,0.9,0.5,1.3
				c0.4,0.4,1.2,0.9,2.6,1.6l3.2,1.6c-0.6-0.2,6.2,4.1,7,5.1c1.3,1.7,1.9,3.8,1.9,6.1c0,3.1-1.1,5.7-3.4,7.8
				c-2.3,2.1-5.3,3.1-9.2,3.1c-5.1,0-9.2-2-12.2-6l5.4-5.9c1,1.2,2.2,2.2,3.6,2.9c1.4,0.7,2.6,1.1,3.7,1.1c1.2,0,2.1-0.3,2.8-0.8
				c0.7-0.6,1.1-1.2,1.1-1.9c0-1.3-1.3-2.7-3.8-3.9l-3-1.5c-5.7-2.8-8.5-6.4-8.5-10.7c0-2.8,1.1-5.1,3.2-7.1c2.1-2,4.9-2.9,8.2-2.9
				c2.3,0,4.4,0.5,6.4,1.5C143.4,24.1,145.1,25.6,146.5,27.4z"/>
		</g>
		<g>
			<linearGradient id="SVGID_1_" gradientUnits="userSpaceOnUse" x1="27.2771" y1="29.0607" x2="2.5889" y2="20.075">
				<stop  offset="0" style="stop-color:#6AC28C"/>
				<stop  offset="1" style="stop-color:#006838"/>
			</linearGradient>
			<path fill="url(#SVGID_1_)" d="M23.7,35.1c-6.6,4.1-15.2,2.1-19.3-4.5S2.4,15.4,8.9,11.4s3.3,5.3,7.4,11.9S30.3,31.1,23.7,35.1z"
				/>
			<linearGradient id="SVGID_2_" gradientUnits="userSpaceOnUse" x1="29.4603" y1="18.3814" x2="26.2573" y2="0.2159">
				<stop  offset="0" style="stop-color:#FBB040"/>
				<stop  offset="1" style="stop-color:#F9ED32"/>
			</linearGradient>
			<path fill="url(#SVGID_2_)" d="M15.2,17.6c-2-7.5,2.5-15.1,9.9-17.1s15.1,2.5,17.1,9.9S36.2,12,28.7,14S17.1,25.1,15.2,17.6z"/>
			<linearGradient id="SVGID_3_" gradientUnits="userSpaceOnUse" x1="18.9862" y1="41.533" x2="41.6327" y2="54.6079">
				<stop  offset="0" style="stop-color:#00BBF2"/>
				<stop  offset="1" style="stop-color:#1C75BC"/>
			</linearGradient>
			<path fill="url(#SVGID_3_)" d="M23.8,35.9c7.2-2.7,15.3,0.9,18,8.2s-0.9,15.3-8.2,18s-2.2-5.9-4.9-13.1S16.5,38.7,23.8,35.9z"/>
			<linearGradient id="SVGID_4_" gradientUnits="userSpaceOnUse" x1="15.5191" y1="50.6007" x2="13.2902" y2="68.7531">
				<stop  offset="0" style="stop-color:#F7941E"/>
				<stop  offset="1" style="stop-color:#F15A29"/>
			</linearGradient>
			<path fill="url(#SVGID_4_)" d="M29,55.6c-0.4,7.7-7,13.7-14.7,13.3C6.6,68.4,0.6,61.9,1,54.2s6.3,0.3,14,0.7S29.4,47.9,29,55.6z"
				/>
		</g>
		<rect id="XMLID_1_" y="73.5" fill="none" width="188.3" height="35.1"/>
		<text transform="matrix(1 0 0 1 -2.219661e-004 88.6223)" font-family="'Drugs'" font-size="21px">D</text>
		<text transform="matrix(1 0 0 1 15.3299 88.6223)" font-family="'Drugs'" font-size="21px">á</text>
		<text transform="matrix(1 0 0 1 27.1946 88.6223)" font-family="'Drugs'" font-size="21px">r</text>
		<text transform="matrix(1 0 0 1 35.2796 88.6223)" font-family="'Drugs'" font-size="21px">k</text>
		<text transform="matrix(1 0 0 1 46.1995 88.6223)" font-family="'Drugs'" font-size="21px">y</text>
		<text transform="matrix(1 0 0 1 59.5344 88.6223)" font-family="'Drugs'" font-size="21px"> </text>
		<text transform="matrix(1 0 0 1 64.3645 88.6223)" font-family="'Drugs'" font-size="21px">p</text>
		<text transform="matrix(1 0 0 1 77.6995 88.6223)" font-family="'Drugs'" font-size="21px">r</text>
		<text transform="matrix(1 0 0 1 85.3645 88.6223)" font-family="'Drugs'" font-size="21px">o</text>
		<text transform="matrix(1 0 0 1 97.9641 88.6223)" font-family="'Drugs'" font-size="21px"> </text>
		<text transform="matrix(1 0 0 1 102.7942 88.6223)" font-family="'Drugs'" font-size="21px">k</text>
		<text transform="matrix(1 0 0 1 113.7141 88.6223)" font-family="'Drugs'" font-size="21px">a</text>
		<text transform="matrix(1 0 0 1 125.5789 88.6223)" font-family="'Drugs'" font-size="21px">ž</text>
		<text transform="matrix(1 0 0 1 135.2385 88.6223)" font-family="'Drugs'" font-size="21px">d</text>
		<text transform="matrix(1 0 0 1 148.5735 88.6223)" font-family="'Drugs'" font-size="21px">é</text>
		<text transform="matrix(1 0 0 1 160.6482 88.6223)" font-family="'Drugs'" font-size="21px">h</text>
		<text transform="matrix(1 0 0 1 173.7732 88.6223)" font-family="'Drugs'" font-size="21px">o</text>
	</g>
	<g>
		<path d="M151.7,54.5c0.6,0,1.2,0.2,1.6,0.7s0.7,1,0.7,1.6s-0.2,1.2-0.7,1.6s-1,0.7-1.6,0.7s-1.2-0.2-1.6-0.7s-0.7-1-0.7-1.6
			s0.2-1.2,0.7-1.6S151.1,54.5,151.7,54.5z"/>
		<path d="M173.6,46l-3.3,1.8c-0.6-0.7-1.2-1.1-1.9-1.4c-0.6-0.3-1.3-0.4-2.1-0.4c-1.5,0-2.7,0.4-3.6,1.3s-1.4,2-1.4,3.4
			c0,1.4,0.4,2.5,1.3,3.3c0.9,0.9,2.1,1.3,3.5,1.3c1.8,0,3.2-0.6,4.2-1.8l3.2,2.2c-1.7,2.2-4.1,3.3-7.2,3.3c-2.8,0-5-0.8-6.6-2.5
			s-2.4-3.6-2.4-5.8c0-1.5,0.4-3,1.2-4.3s1.8-2.3,3.2-3.1s2.9-1.1,4.6-1.1c1.6,0,3,0.3,4.3,0.9S172.8,44.8,173.6,46z"/>
		<path d="M176.5,42.7h12.2l-7.2,12.6h6.8v3.4h-12.9l7.2-12.6h-6.1V42.7z"/>
	</g>
</g>
</svg>
