<?xml version="1.0" encoding="utf-8"?>
<!-- Generator: Adobe Illustrator 19.0.0, SVG Export Plug-In . SVG Version: 6.00 Build 0)  -->
<svg version="1.1" id="Layer_1" xmlns="http://www.w3.org/2000/svg" xmlns:xlink="http://www.w3.org/1999/xlink" x="0px" y="0px"
	 viewBox="0 0 187.7 108.6" style="enable-background:new 0 0 187.7 108.6;" xml:space="preserve">
<style type="text/css">
	.st0{fill:url(#SVGID_1_);}
	.st1{fill:url(#SVGID_2_);}
	.st2{fill:url(#SVGID_3_);}
	.st3{fill:url(#SVGID_4_);}
	.st4{fill:none;}
	.st5{font-family:'Drugs';}
	.st6{font-size:21px;}
</style>
<g>
	<g>
		<g>
			<path d="M48.7,9.7h8.8v12.9h5.2v7.5h-5.2v27.4h-8.8V30.1h-4.5v-7.5h4.5V9.7z"/>
			<path d="M70.8,8.2c1.5,0,2.9,0.6,4,1.7c1.1,1.1,1.6,2.5,1.6,4c0,1.6-0.5,2.9-1.6,4c-1.1,1.1-2.4,1.7-3.9,1.7
				c-1.6,0-2.9-0.6-4-1.7c-1.1-1.1-1.6-2.5-1.6-4.1c0-1.5,0.5-2.9,1.6-3.9C67.9,8.7,69.2,8.2,70.8,8.2z M66.4,22.5h8.8v34.9h-8.8
				V22.5z"/>
			<path d="M91.8,22.5v3.9c1.6-1.6,3.3-2.8,5.1-3.6c1.8-0.8,3.8-1.2,5.9-1.2c4.6,0,8.4,1.7,11.6,5.2c3.2,3.4,4.8,7.9,4.8,13.3
				c0,5.2-1.6,9.6-4.9,13c-3.3,3.5-7.2,5.2-11.7,5.2c-2,0-3.9-0.4-5.6-1.1s-3.5-1.9-5.2-3.5v16.5h-8.7V22.5H91.8z M101,29.7
				c-2.8,0-5.1,0.9-6.9,2.8c-1.8,1.9-2.7,4.3-2.7,7.4c0,3.1,0.9,5.6,2.7,7.5c1.8,1.9,4.1,2.9,6.9,2.9c2.7,0,4.9-1,6.8-2.9
				c1.8-1.9,2.7-4.4,2.7-7.4c0-3-0.9-5.5-2.7-7.4C106,30.7,103.8,29.7,101,29.7z"/>
			<path d="M145.5,27.4l-5.4,5.4c-2.2-2.2-4.2-3.3-6-3.3c-1,0-1.8,0.2-2.3,0.6c-0.6,0.4-0.8,0.9-0.8,1.6c0,0.5,0.2,0.9,0.5,1.3
				c0.4,0.4,1.2,0.9,2.6,1.6l3.2,1.6c-0.6-0.2,6.2,4.1,7,5.1c1.3,1.7,1.9,3.8,1.9,6.1c0,3.1-1.1,5.7-3.4,7.8
				c-2.3,2.1-5.3,3.1-9.2,3.1c-5.1,0-9.2-2-12.2-6l5.4-5.9c1,1.2,2.2,2.2,3.6,2.9c1.4,0.7,2.6,1.1,3.7,1.1c1.2,0,2.1-0.3,2.8-0.8
				c0.7-0.6,1.1-1.2,1.1-1.9c0-1.3-1.3-2.7-3.8-3.9l-3-1.5c-5.7-2.8-8.5-6.4-8.5-10.7c0-2.8,1.1-5.1,3.2-7.1c2.1-2,4.9-2.9,8.2-2.9
				c2.3,0,4.4,0.5,6.4,1.5C142.4,24.1,144.1,25.6,145.5,27.4z"/>
		</g>
		<g>
			<linearGradient id="SVGID_1_" gradientUnits="userSpaceOnUse" x1="26.2588" y1="29.0607" x2="1.5706" y2="20.075">
				<stop  offset="0" style="stop-color:#6AC28C"/>
				<stop  offset="1" style="stop-color:#006838"/>
			</linearGradient>
			<path class="st0" d="M22.7,35.1c-6.6,4.1-15.2,2.1-19.3-4.5S1.4,15.4,7.9,11.4s3.3,5.3,7.4,11.9S29.3,31.1,22.7,35.1z"/>
			<linearGradient id="SVGID_2_" gradientUnits="userSpaceOnUse" x1="28.4421" y1="18.3814" x2="25.239" y2="0.2159">
				<stop  offset="0" style="stop-color:#FBB040"/>
				<stop  offset="1" style="stop-color:#F9ED32"/>
			</linearGradient>
			<path class="st1" d="M14.1,17.6c-2-7.5,2.5-15.1,9.9-17.1s15.1,2.5,17.1,9.9S35.1,12,27.7,14S16.1,25.1,14.1,17.6z"/>
			<linearGradient id="SVGID_3_" gradientUnits="userSpaceOnUse" x1="17.9679" y1="41.533" x2="40.6144" y2="54.6079">
				<stop  offset="0" style="stop-color:#00BBF2"/>
				<stop  offset="1" style="stop-color:#1C75BC"/>
			</linearGradient>
			<path class="st2" d="M22.7,35.9c7.2-2.7,15.3,0.9,18,8.2c2.7,7.2-0.9,15.3-8.2,18s-2.2-5.9-4.9-13.1S15.5,38.7,22.7,35.9z"/>
			<linearGradient id="SVGID_4_" gradientUnits="userSpaceOnUse" x1="14.5008" y1="50.6007" x2="12.272" y2="68.7531">
				<stop  offset="0" style="stop-color:#F7941E"/>
				<stop  offset="1" style="stop-color:#F15A29"/>
			</linearGradient>
			<path class="st3" d="M27.9,55.6c-0.4,7.7-7,13.7-14.7,13.3C5.5,68.4-0.4,61.9,0,54.2s6.3,0.3,14,0.7S28.3,47.9,27.9,55.6z"/>
		</g>
		<rect id="XMLID_1_" x="-1" y="73.5" class="st4" width="188.3" height="35.1"/>
		<text transform="matrix(1 0 0 1 -1.0185 88.6223)" class="st5 st6">Dárky pro každého</text>
	</g>
	<g>
		<path d="M150.7,54.5c0.6,0,1.2,0.2,1.6,0.7s0.7,1,0.7,1.6s-0.2,1.2-0.7,1.6s-1,0.7-1.6,0.7s-1.2-0.2-1.6-0.7s-0.7-1-0.7-1.6
			s0.2-1.2,0.7-1.6S150.1,54.5,150.7,54.5z"/>
		<path d="M172.5,46l-3.3,1.8c-0.6-0.7-1.2-1.1-1.9-1.4c-0.6-0.3-1.3-0.4-2.1-0.4c-1.5,0-2.7,0.4-3.6,1.3s-1.4,2-1.4,3.4
			c0,1.4,0.4,2.5,1.3,3.3c0.9,0.9,2.1,1.3,3.5,1.3c1.8,0,3.2-0.6,4.2-1.8l3.2,2.2c-1.7,2.2-4.1,3.3-7.2,3.3c-2.8,0-5-0.8-6.6-2.5
			s-2.4-3.6-2.4-5.8c0-1.5,0.4-3,1.2-4.3s1.8-2.3,3.2-3.1s2.9-1.1,4.6-1.1c1.6,0,3,0.3,4.3,0.9S171.7,44.8,172.5,46z"/>
		<path d="M175.5,42.7h12.2l-7.2,12.6h6.8v3.4h-12.9l7.2-12.6h-6.1V42.7z"/>
	</g>
</g>
</svg>
